<svg width="72" height="72" viewBox="0 0 72 72" fill="none" xmlns="http://www.w3.org/2000/svg">
<rect width="72" height="72" rx="36" fill="#00B307" fill-opacity="0.1"/>
<g clip-path="url(#clip0_25_21266)">
<path d="M47.1385 33.37C46.9782 32.8754 46.5587 32.5217 46.0441 32.4471L39.9437 31.5606L37.2157 26.0333C36.986 25.5667 36.5201 25.277 36 25.277C35.4799 25.277 35.014 25.5667 34.7844 26.0328L32.0561 31.5606L25.9558 32.4471C25.4415 32.5217 25.0221 32.8752 24.8612 33.3699C24.7009 33.8638 24.8323 34.3961 25.2044 34.7594L29.6188 39.0621L28.5767 45.1377C28.4887 45.6499 28.6951 46.1581 29.1158 46.4638C29.3534 46.6366 29.6316 46.7244 29.9115 46.7243C30.1269 46.7243 30.3435 46.6723 30.5436 46.5671L36 43.6985L41.456 46.5672C41.6497 46.6689 41.8678 46.7228 42.0866 46.7228C42.3751 46.7228 42.6506 46.6332 42.8838 46.4638C43.3037 46.1584 43.5105 45.6505 43.4229 45.138L43.0107 42.7343C42.9516 42.3905 42.6248 42.1596 42.2814 42.2185C41.9376 42.2775 41.7067 42.6041 41.7657 42.9478L42.1779 45.3511C42.1837 45.3858 42.1692 45.4216 42.141 45.4421C42.0991 45.4726 42.0687 45.4623 42.0435 45.449L36.2935 42.426C36.1096 42.3294 35.8899 42.3293 35.7057 42.426L29.9551 45.4492C29.9244 45.4653 29.8862 45.4625 29.858 45.4421C29.8294 45.4212 29.8152 45.3867 29.8212 45.3515L30.9195 38.9485C30.9548 38.7435 30.8869 38.5345 30.738 38.3894L26.086 33.8552C26.0608 33.8306 26.0515 33.7932 26.0622 33.7603C26.073 33.7269 26.1024 33.7021 26.137 33.6971L32.566 32.7628C32.7718 32.7329 32.9496 32.6038 33.0416 32.4173L35.917 26.5914C35.9483 26.5281 36.051 26.5275 36.0826 26.5917L38.9579 32.4173C39.0498 32.6037 39.2277 32.7329 39.4334 32.7628L45.8625 33.6971C45.897 33.7021 45.9262 33.7267 45.9372 33.7605C45.948 33.7935 45.9387 33.8306 45.9137 33.8549L41.2616 38.3894C41.1128 38.5345 41.0448 38.7436 41.0801 38.9485L41.4271 40.9715C41.4859 41.3153 41.8126 41.5462 42.1562 41.4872C42.5001 41.4282 42.731 41.1017 42.6719 40.7579L42.3811 39.0621L46.7955 34.7592C47.1679 34.396 47.2992 33.8635 47.1385 33.37Z" fill="#00B307" stroke="#00B307" stroke-width="0.3"/>
<path d="M19.6314 35.3684H16.6316C16.2827 35.3684 16 35.6512 16 36C16 36.3488 16.2827 36.6315 16.6316 36.6315H19.6314C19.9803 36.6315 20.263 36.3487 20.263 36C20.263 35.6512 19.9802 35.3684 19.6314 35.3684Z" fill="#00B307" stroke="#00B307" stroke-width="0.3"/>
<path d="M55.3681 35.3684H52.3683C52.0194 35.3684 51.7367 35.6512 51.7367 36C51.7367 36.3488 52.0195 36.6315 52.3683 36.6315H55.3681C55.717 36.6315 55.9996 36.3487 55.9996 36C55.9996 35.6512 55.717 35.3684 55.3681 35.3684Z" fill="#00B307" stroke="#00B307" stroke-width="0.3"/>
<path d="M23.9793 47.1275L21.8581 49.2486C21.6114 49.4952 21.6114 49.8951 21.858 50.1418C21.9814 50.2651 22.143 50.3268 22.3047 50.3268C22.4662 50.3268 22.6279 50.2651 22.7511 50.1418L24.8723 48.0207C25.119 47.7741 25.119 47.3742 24.8724 47.1275C24.6258 46.8809 24.2258 46.8809 23.9793 47.1275Z" fill="#00B307" stroke="#00B307" stroke-width="0.3"/>
<path d="M49.2487 21.8575L47.1275 23.9786C46.8807 24.2252 46.8807 24.6251 47.1274 24.8718C47.2507 24.9951 47.4124 25.0568 47.574 25.0568C47.7357 25.0568 47.8973 24.9951 48.0205 24.8717L50.1417 22.7506C50.3885 22.504 50.3885 22.1041 50.1418 21.8575C49.8952 21.6107 49.4953 21.6107 49.2487 21.8575Z" fill="#00B307" stroke="#00B307" stroke-width="0.3"/>
<path d="M36 51.7375C35.6511 51.7375 35.3684 52.0203 35.3684 52.3691V55.3688C35.3684 55.7177 35.6512 56.0004 36 56.0004C36.3489 56.0004 36.6315 55.7176 36.6315 55.3688V52.3691C36.6315 52.0202 36.3489 51.7375 36 51.7375Z" fill="#00B307" stroke="#00B307" stroke-width="0.3"/>
<path d="M36 20.263C36.3489 20.263 36.6315 19.9802 36.6315 19.6315V16.6316C36.6315 16.2828 36.3488 16.0001 36 16.0001C35.6511 16.0001 35.3684 16.2829 35.3684 16.6316V19.6315C35.3684 19.9803 35.6511 20.263 36 20.263Z" fill="#00B307" stroke="#00B307" stroke-width="0.3"/>
<path d="M48.0205 47.1275C47.774 46.8808 47.3741 46.8808 47.1274 47.1275C46.8807 47.374 46.8807 47.7739 47.1275 48.0206L49.2487 50.1418C49.372 50.2651 49.5337 50.3268 49.6953 50.3268C49.8568 50.3268 50.0185 50.2651 50.1418 50.1417C50.3885 49.8951 50.3885 49.4952 50.1417 49.2486L48.0205 47.1275Z" fill="#00B307" stroke="#00B307" stroke-width="0.3"/>
<path d="M23.9791 24.872C24.1025 24.9954 24.2641 25.057 24.4258 25.057C24.5873 25.057 24.7491 24.9954 24.8723 24.8722C25.119 24.6255 25.119 24.2256 24.8723 23.979L22.7512 21.8577C22.5046 21.6111 22.1048 21.6111 21.858 21.8577C21.6113 22.1043 21.6113 22.5042 21.858 22.7508L23.9791 24.872Z" fill="#00B307" stroke="#00B307" stroke-width="0.3"/>
</g>
<defs>
<clipPath id="clip0_25_21266">
<rect width="40" height="40" fill="white" transform="translate(16 16)"/>
</clipPath>
</defs>
</svg>
