<svg width="72" height="72" viewBox="0 0 72 72" fill="none" xmlns="http://www.w3.org/2000/svg">
<rect width="72" height="72" rx="36" fill="#00B307" fill-opacity="0.1"/>
<g clip-path="url(#clip0_25_21309)">
<path d="M52.5563 26.4871C52.5563 26.3504 52.5259 26.2136 52.4651 26.0844C52.3435 25.8261 52.108 25.6513 51.8497 25.5981L36.3722 18.0912C36.1215 17.9696 35.8252 17.9696 35.5744 18.0912L19.945 25.6665C19.6411 25.8109 19.4436 26.1148 19.4284 26.4567V26.4643C19.4284 26.4719 19.4284 26.4795 19.4284 26.4947V45.5053C19.4284 45.8548 19.6259 46.1739 19.945 46.3259L35.5744 53.9012C35.582 53.9012 35.582 53.9012 35.5896 53.9088C35.6124 53.9164 35.6352 53.924 35.658 53.9392C35.6656 53.9392 35.6732 53.9468 35.6884 53.9468C35.7112 53.9544 35.734 53.962 35.7568 53.9696C35.7644 53.9696 35.772 53.9772 35.7796 53.9772C35.8024 53.9848 35.8328 53.9848 35.8556 53.9924C35.8632 53.9924 35.8708 53.9924 35.8784 53.9924C35.9087 53.9924 35.9467 54 35.9771 54C36.0075 54 36.0455 54 36.0759 53.9924C36.0835 53.9924 36.0911 53.9924 36.0987 53.9924C36.1215 53.9924 36.1519 53.9848 36.1747 53.9772C36.1823 53.9772 36.1899 53.9696 36.1975 53.9696C36.2203 53.962 36.2431 53.9544 36.2659 53.9468C36.2735 53.9468 36.2811 53.9392 36.2963 53.9392C36.319 53.9316 36.3418 53.924 36.3646 53.9088C36.3722 53.9088 36.3722 53.9088 36.3798 53.9012L52.0548 46.3031C52.3663 46.1511 52.5715 45.832 52.5715 45.4825V26.5099C52.5563 26.5023 52.5563 26.4947 52.5563 26.4871ZM35.9695 19.9223L49.5246 26.4947L44.5326 28.9185L30.9776 22.3461L35.9695 19.9223ZM35.9695 33.0671L22.4144 26.4947L28.8881 23.3567L42.4432 29.9291L35.9695 33.0671ZM21.2519 27.9612L35.0578 34.6551V51.6218L21.2519 44.9278V27.9612ZM36.8813 51.6218V34.6551L43.3625 31.5095V35.9468C43.3625 36.4483 43.7728 36.8586 44.2743 36.8586C44.7758 36.8586 45.1861 36.4483 45.1861 35.9468V30.6205L50.7327 27.9308V44.8974L36.8813 51.6218Z" fill="#00B307"/>
</g>
<defs>
<clipPath id="clip0_25_21309">
<rect width="36" height="36" fill="white" transform="translate(18 18)"/>
</clipPath>
</defs>
</svg>
