<svg width="72" height="72" viewBox="0 0 72 72" fill="none" xmlns="http://www.w3.org/2000/svg">
<rect width="72" height="72" rx="36" fill="#00B307" fill-opacity="0.1"/>
<g clip-path="url(#clip0_25_21291)">
<path d="M48.3164 31.6891V30.305C48.3164 26.9924 47.1441 23.9143 45.0189 21.6303C42.8407 19.2857 39.8458 18 36.5786 18H35.4365C32.1693 18 29.1744 19.2857 26.9962 21.6303C24.871 23.9143 23.6987 26.9924 23.6987 30.305V31.6891C21.1197 31.863 19.0702 34.0109 19.0702 36.6353V38.7983C19.0702 41.5286 21.2937 43.7521 24.0239 43.7521H26.8147C27.3139 43.7521 27.7223 43.3437 27.7223 42.8445V32.5815C27.7223 32.0824 27.3139 31.674 26.8147 31.674H25.5139V30.305C25.5139 24.3227 29.7794 19.8151 35.429 19.8151H36.571C42.2281 19.8151 46.4861 24.3227 46.4861 30.305V31.674H45.1853C44.6861 31.674 44.2777 32.0824 44.2777 32.5815V42.837C44.2777 43.3361 44.6861 43.7445 45.1853 43.7445H46.4559C46.0853 48.479 42.8256 49.5756 41.313 49.8252C40.8971 48.5471 39.6945 47.6244 38.2802 47.6244H36.0113C34.2567 47.6244 32.8273 49.0538 32.8273 50.8084C32.8273 52.563 34.2567 54 36.0113 54H38.2878C39.755 54 40.9878 53.0017 41.3584 51.6555C42.0996 51.5496 43.2718 51.2849 44.4365 50.6042C46.0777 49.6437 48.0214 47.6849 48.2786 43.737C50.8727 43.5782 52.9298 41.4227 52.9298 38.7908V36.6277C52.9374 34.0109 50.8954 31.8555 48.3164 31.6891ZM25.9223 41.9294H24.0391C22.3071 41.9294 20.9004 40.5227 20.9004 38.7908V36.6277C20.9004 34.8958 22.3071 33.4891 24.0391 33.4891H25.9223V41.9294ZM38.2878 52.1849H36.0113C35.255 52.1849 34.6424 51.5723 34.6424 50.816C34.6424 50.0597 35.255 49.4471 36.0113 49.4471H38.2878C39.0441 49.4471 39.6567 50.0597 39.6567 50.816C39.6567 51.5723 39.0441 52.1849 38.2878 52.1849ZM51.1223 38.7908C51.1223 40.5227 49.7155 41.9294 47.9836 41.9294H46.1004V33.4891H47.9836C49.7155 33.4891 51.1223 34.8958 51.1223 36.6277V38.7908Z" fill="#00B307"/>
</g>
<defs>
<clipPath id="clip0_25_21291">
<rect width="36" height="36" fill="white" transform="translate(18 18)"/>
</clipPath>
</defs>
</svg>
