<svg width="72" height="72" viewBox="0 0 72 72" fill="none" xmlns="http://www.w3.org/2000/svg">
<rect width="72" height="72" rx="36" fill="#00B307" fill-opacity="0.1"/>
<g clip-path="url(#clip0_25_21257)">
<path d="M52.4903 16.5389C52.437 16.3431 52.3045 16.1784 52.1244 16.0846C51.7692 15.8966 51.3289 16.0322 51.1408 16.3874C51.1403 16.3883 51.1398 16.3892 51.1394 16.3901C51.1394 16.4102 47.4527 23.5627 36.135 24.809C34.6587 24.9665 33.2157 25.3517 31.8572 25.9508C29.4258 27.0079 27.4176 28.8477 26.1522 31.1774C24.9708 33.3659 24.4815 35.8614 24.749 38.3339C24.9461 40.1363 25.5481 41.8708 26.51 43.4077C24.4998 44.8511 18.1233 49.8405 17.5484 55.1957C17.5061 55.5954 17.796 55.9536 18.1957 55.9958C18.5954 56.038 18.9535 55.7482 18.9957 55.3485C19.5224 50.5682 25.5049 45.9326 27.3704 44.5897C29.6098 47.3397 32.9629 48.8916 36.5612 49.1449C38.983 49.3012 41.4078 48.8882 43.6412 47.9388C46.0658 46.9215 48.2071 45.3307 49.881 43.3032C54.195 38.0766 56.2495 29.2918 52.4903 16.5389ZM27.7885 42.6881C27.5111 42.2511 27.2666 41.7942 27.0568 41.3211C26.6153 40.3227 26.3306 39.2623 26.2125 38.1771C25.9662 35.9995 26.3868 33.7984 27.4186 31.8649C28.5339 29.8151 30.303 28.1975 32.4442 27.2695C33.6684 26.7365 34.9676 26.3962 36.2958 26.2604C43.7659 25.4563 48.1603 22.1314 50.4278 19.7191C49.0955 24.1053 46.8017 28.1393 43.7136 31.5272L43.2714 27.0725C43.2488 26.6713 42.9053 26.3642 42.5041 26.3867C42.1028 26.4093 41.7957 26.7528 41.8183 27.154C41.8194 27.1738 41.8213 27.1936 41.824 27.2132L42.3909 32.9384C39.0097 36.3679 34.3097 39.8134 27.7885 42.6881ZM48.7553 42.3704V42.3745C47.2343 44.2262 45.2861 45.6805 43.0784 46.612C41.0481 47.47 38.8446 47.8391 36.6456 47.6895C33.5843 47.5344 30.7116 46.1639 28.665 43.8821C31.0634 42.8208 33.3824 41.5888 35.6043 40.1954L41.9928 41.4015C42.3899 41.4637 42.7622 41.1922 42.8244 40.7952C42.8844 40.4123 42.6336 40.0494 42.2542 39.9702L37.3452 39.0415C39.6118 37.4848 41.7218 35.7114 43.6453 33.7465C43.6805 33.7162 43.7128 33.6825 43.7418 33.646C48.8156 28.3631 50.9746 23.1365 51.8752 19.9201C54.3598 30.5181 52.4581 37.8916 48.7553 42.3704Z" fill="#00B307"/>
</g>
<defs>
<clipPath id="clip0_25_21257">
<rect width="40" height="40" fill="white" transform="translate(16 16)"/>
</clipPath>
</defs>
</svg>
